<svg width="32" height="33" viewBox="0 0 32 33" fill="none" xmlns="http://www.w3.org/2000/svg">
<circle cx="16" cy="16.5" r="15" fill="white"/>
<path d="M20.7024 17.6875H19.4833H12.0891V22.1683H14.1633H20.7024C22.2066 22.1683 23.4416 21.155 23.4416 19.92C23.4416 18.685 22.2066 17.6875 20.7024 17.6875Z" fill="#FF8C00"/>
<path d="M16.0001 0.666626C7.26008 0.666626 0.166748 7.75996 0.166748 16.5C0.166748 25.24 7.26008 32.3333 16.0001 32.3333C24.7401 32.3333 31.8334 25.24 31.8334 16.5C31.8334 7.75996 24.7401 0.666626 16.0001 0.666626ZM20.7026 24.5433H18.0901V26.7916C18.0901 27.4408 17.5517 27.9791 16.9026 27.9791C16.2534 27.9791 15.7151 27.4408 15.7151 26.7916V24.5433H14.1634H13.7992V26.7916C13.7992 27.4408 13.2609 27.9791 12.6117 27.9791C11.9626 27.9791 11.4242 27.4408 11.4242 26.7916V24.5433H10.9017H8.16258C7.51341 24.5433 6.97508 24.005 6.97508 23.3558C6.97508 22.7066 7.51341 22.1683 8.16258 22.1683H9.71425V16.5V10.8316H8.16258C7.51341 10.8316 6.97508 10.2933 6.97508 9.64413C6.97508 8.99496 7.51341 8.45663 8.16258 8.45663H10.9017H11.4242V6.20829C11.4242 5.55913 11.9626 5.02079 12.6117 5.02079C13.2609 5.02079 13.7992 5.55913 13.7992 6.20829V8.45663H14.1634H15.7151V6.20829C15.7151 5.55913 16.2534 5.02079 16.9026 5.02079C17.5517 5.02079 18.0901 5.55913 18.0901 6.20829V8.45663H19.4834C21.9376 8.45663 24.1067 10.61 24.1067 13.08C24.1067 14.1408 23.7267 15.1066 23.1251 15.8983C24.7242 16.6741 25.8167 18.1941 25.8167 19.9516C25.8167 22.4691 23.5209 24.5433 20.7026 24.5433Z" fill="#FF8C00"/>
<path d="M21.7316 13.0641C21.7316 12.0191 20.7499 10.8158 19.4833 10.8158H14.1633H12.0891V15.2966H19.4833C20.7183 15.3125 21.7316 14.2991 21.7316 13.0641Z" fill="#FF8C00"/>
</svg>
