<svg width="22" height="22" viewBox="0 0 22 22" fill="none" xmlns="http://www.w3.org/2000/svg">
<path d="M11 19.6745C6.53126 19.6745 2.85157 15.9948 2.85157 11.5261C2.85157 7.06512 6.53126 3.37762 10.9922 3.37762C15.4609 3.37762 19.1484 7.06512 19.1484 11.5261C19.1484 15.9948 15.4688 19.6745 11 19.6745ZM10.1328 15.4089C10.4453 15.4089 10.7188 15.2526 10.9063 14.9714L14.5547 9.33856C14.6719 9.15887 14.7656 8.94794 14.7656 8.76044C14.7656 8.32294 14.375 8.01825 13.9531 8.01825C13.6797 8.01825 13.4453 8.1745 13.2578 8.46356L10.1094 13.4948L8.66407 11.6823C8.46095 11.4323 8.25782 11.3307 8.00001 11.3307C7.56251 11.3307 7.21876 11.6823 7.21876 12.1198C7.21876 12.3307 7.28907 12.5182 7.44532 12.7136L9.32813 14.9792C9.56251 15.2682 9.81251 15.4089 10.1328 15.4089Z" fill="#1D8EF8"/>
</svg>
