<svg width="22" height="24" viewBox="0 0 22 24" fill="none" xmlns="http://www.w3.org/2000/svg">
<g clip-path="url(#clip0_7180_4655)">
<path fill-rule="evenodd" clip-rule="evenodd" d="M17.0307 2.72656V4.23633H19.3472H19.3491V4.24023C20.0807 4.24219 20.7439 4.54688 21.2228 5.04102C21.6978 5.53125 21.9943 6.20898 21.9962 6.95898H22V6.96289V21.2734V21.2754H21.9962C21.9943 22.0254 21.6978 22.707 21.2171 23.2012C20.7401 23.6895 20.0807 23.9941 19.351 23.9961V24H19.3472H7.62218H7.62028V23.9961C6.89056 23.9941 6.22545 23.6895 5.74657 23.1953C5.27149 22.7051 4.97504 22.0273 4.97314 21.2773H4.96934V21.2734V18.0684H2.65285H2.65095V18.0645C1.92122 18.0625 1.25611 17.7578 0.777231 17.2637C0.302151 16.7734 0.00570096 16.0957 0.00380064 15.3457H0V15.3418V2.72656V2.72461H0.00380064C0.00570096 1.97266 0.304051 1.29102 0.782932 0.798828C1.25991 0.310547 1.91932 0.00585938 2.64905 0.00390625V0H2.65285H14.3778H14.3797V0.00390625C15.1113 0.00585938 15.7746 0.310547 16.2534 0.804688C16.7285 1.29492 17.025 1.97266 17.0269 2.72266H17.0307V2.72656ZM15.0201 4.23633V2.72656V2.72266H15.0239C15.0239 2.54492 14.9498 2.38086 14.832 2.25977C14.7161 2.14062 14.5545 2.06445 14.3816 2.06445V2.06836H14.3797H2.65475H2.65095V2.06445C2.47802 2.06445 2.31839 2.14062 2.20057 2.26172C2.08465 2.38086 2.01054 2.54688 2.01054 2.72461H2.01434V2.72656V15.3418V15.3457H2.01054C2.01054 15.5234 2.08465 15.6875 2.20247 15.8086C2.31839 15.9277 2.47992 16.0039 2.65285 16.0039V16H2.65475H4.97124V6.96289V6.96094H4.97504C4.97694 6.20898 5.27529 5.52734 5.75417 5.03516C6.23115 4.54688 6.89056 4.24219 7.62028 4.24023V4.23633H7.62408H15.0201ZM19.9876 21.2734V6.96289V6.95898H19.9914C19.9914 6.78125 19.9172 6.61719 19.7994 6.49609C19.6835 6.37695 19.522 6.30078 19.3491 6.30078V6.30469H19.3472H7.62218H7.61838V6.30078C7.44545 6.30078 7.28583 6.37695 7.16801 6.49805C7.05209 6.61719 6.97797 6.7832 6.97797 6.96094H6.98177V6.96289V21.2734V21.2773H6.97797C6.97797 21.4551 7.05209 21.6191 7.16991 21.7402C7.28583 21.8594 7.44735 21.9355 7.62028 21.9355V21.9316H7.62218H19.3472H19.351V21.9355C19.5239 21.9355 19.6835 21.8594 19.8013 21.7383C19.9172 21.6191 19.9914 21.4531 19.9914 21.2754H19.9876V21.2734Z" fill="white"/>
</g>
<defs>
<clipPath id="clip0_7180_4655">
<rect width="22" height="24" fill="white"/>
</clipPath>
</defs>
</svg>
