<svg width="20" height="21" viewBox="0 0 20 21" fill="none" xmlns="http://www.w3.org/2000/svg">
<path d="M18.2667 10.1667C16.5834 6.25833 13.4167 3.83333 10.0001 3.83333C6.58339 3.83333 3.41672 6.25833 1.73339 10.1667C1.6875 10.2718 1.66382 10.3853 1.66382 10.5C1.66382 10.6147 1.6875 10.7282 1.73339 10.8333C3.41672 14.7417 6.58339 17.1667 10.0001 17.1667C13.4167 17.1667 16.5834 14.7417 18.2667 10.8333C18.3126 10.7282 18.3363 10.6147 18.3363 10.5C18.3363 10.3853 18.3126 10.2718 18.2667 10.1667V10.1667ZM10.0001 15.5C7.35839 15.5 4.85839 13.5917 3.41672 10.5C4.85839 7.40833 7.35839 5.5 10.0001 5.5C12.6417 5.5 15.1417 7.40833 16.5834 10.5C15.1417 13.5917 12.6417 15.5 10.0001 15.5ZM10.0001 7.16667C9.34078 7.16667 8.69632 7.36216 8.14816 7.72844C7.59999 8.09471 7.17275 8.6153 6.92046 9.22439C6.66816 9.83348 6.60215 10.5037 6.73077 11.1503C6.85939 11.7969 7.17686 12.3908 7.64303 12.857C8.10921 13.3232 8.70315 13.6407 9.34975 13.7693C9.99636 13.8979 10.6666 13.8319 11.2757 13.5796C11.8848 13.3273 12.4053 12.9001 12.7716 12.3519C13.1379 11.8037 13.3334 11.1593 13.3334 10.5C13.3334 9.61595 12.9822 8.7681 12.3571 8.14298C11.732 7.51786 10.8841 7.16667 10.0001 7.16667V7.16667ZM10.0001 12.1667C9.67042 12.1667 9.34819 12.0689 9.07411 11.8858C8.80002 11.7026 8.5864 11.4423 8.46026 11.1378C8.33411 10.8333 8.3011 10.4982 8.36541 10.1748C8.42972 9.85155 8.58846 9.55458 8.82154 9.32149C9.05463 9.0884 9.3516 8.92967 9.6749 8.86536C9.99821 8.80105 10.3333 8.83406 10.6379 8.9602C10.9424 9.08635 11.2027 9.29997 11.3858 9.57405C11.569 9.84813 11.6667 10.1704 11.6667 10.5C11.6667 10.942 11.4911 11.366 11.1786 11.6785C10.866 11.9911 10.4421 12.1667 10.0001 12.1667Z" fill="#A5BABA"/>
</svg>
