<svg width="20" height="21" viewBox="0 0 20 21" fill="none" xmlns="http://www.w3.org/2000/svg">
<path d="M9.11674 5.56667C9.40904 5.52186 9.70436 5.49957 10.0001 5.5C12.6501 5.5 15.1417 7.40833 16.5917 10.5C16.37 10.9705 16.1195 11.4269 15.8417 11.8667C15.7536 12.0032 15.7072 12.1625 15.7084 12.325C15.7103 12.5069 15.7716 12.6831 15.883 12.8269C15.9944 12.9707 16.1497 13.074 16.3254 13.1213C16.501 13.1685 16.6873 13.1569 16.8557 13.0884C17.0242 13.0199 17.1656 12.8981 17.2584 12.7417C17.6467 12.1316 17.9839 11.4905 18.2667 10.825C18.3114 10.721 18.3345 10.609 18.3345 10.4958C18.3345 10.3826 18.3114 10.2706 18.2667 10.1667C16.5834 6.25833 13.4167 3.83333 10.0001 3.83333C9.60896 3.83136 9.21848 3.86483 8.83341 3.93333C8.72397 3.95194 8.61927 3.99191 8.52529 4.05098C8.4313 4.11005 8.34987 4.18705 8.28564 4.27759C8.22142 4.36812 8.17565 4.47042 8.15096 4.57865C8.12627 4.68687 8.12314 4.7989 8.14174 4.90833C8.16034 5.01777 8.20032 5.12247 8.25939 5.21645C8.31845 5.31044 8.39545 5.39187 8.48599 5.4561C8.57653 5.52032 8.67883 5.56609 8.78705 5.59078C8.89528 5.61547 9.0073 5.6186 9.11674 5.6V5.56667ZM3.09174 2.40833C3.01404 2.33064 2.9218 2.269 2.82028 2.22695C2.71876 2.1849 2.60996 2.16326 2.50007 2.16326C2.39019 2.16326 2.28138 2.1849 2.17987 2.22695C2.07835 2.269 1.98611 2.33064 1.90841 2.40833C1.75149 2.56525 1.66333 2.77808 1.66333 3C1.66333 3.22192 1.75149 3.43475 1.90841 3.59167L4.49174 6.16667C3.31305 7.30127 2.37495 8.66166 1.73341 10.1667C1.68752 10.2718 1.66384 10.3853 1.66384 10.5C1.66384 10.6147 1.68752 10.7282 1.73341 10.8333C3.41674 14.7417 6.58341 17.1667 10.0001 17.1667C11.4977 17.1563 12.9599 16.7104 14.2084 15.8833L16.9084 18.5917C16.9859 18.6698 17.078 18.7318 17.1796 18.7741C17.2811 18.8164 17.3901 18.8382 17.5001 18.8382C17.6101 18.8382 17.719 18.8164 17.8206 18.7741C17.9221 18.7318 18.0143 18.6698 18.0917 18.5917C18.1698 18.5142 18.2318 18.422 18.2741 18.3205C18.3165 18.2189 18.3382 18.11 18.3382 18C18.3382 17.89 18.3165 17.7811 18.2741 17.6795C18.2318 17.578 18.1698 17.4858 18.0917 17.4083L3.09174 2.40833ZM8.39174 10.0667L10.4334 12.1083C10.2926 12.1487 10.1466 12.1684 10.0001 12.1667C9.55805 12.1667 9.13412 11.9911 8.82156 11.6785C8.509 11.366 8.33341 10.942 8.33341 10.5C8.3317 10.3535 8.35135 10.2075 8.39174 10.0667ZM10.0001 15.5C7.35007 15.5 4.85841 13.5917 3.41674 10.5C3.95515 9.31146 4.7193 8.23881 5.66674 7.34167L7.14174 8.83333C6.79528 9.46566 6.66319 10.1933 6.76529 10.907C6.86739 11.6208 7.19817 12.2822 7.70801 12.7921C8.21785 13.3019 8.87927 13.6327 9.59303 13.7348C10.3068 13.8369 11.0344 13.7048 11.6667 13.3583L12.9917 14.6667C12.0843 15.2007 11.0529 15.488 10.0001 15.5Z" fill="#A5BABA"/>
</svg>
