<svg width="74" height="74" viewBox="0 0 74 74" fill="none" xmlns="http://www.w3.org/2000/svg">
<rect x="1.5" y="1.5" width="71" height="71" rx="35.5" fill="white" fill-opacity="0.1"/>
<rect x="1.5" y="1.5" width="71" height="71" rx="35.5" stroke="white" stroke-width="3"/>
<path d="M43.9 21.9333L28.85 26.9333C18.7333 30.3167 18.7333 35.8333 28.85 39.2L33.3166 40.6833L34.8 45.15C38.1666 55.2667 43.7 55.2667 47.0666 45.15L52.0833 30.1167C54.3166 23.3667 50.65 19.6833 43.9 21.9333ZM44.4333 30.9L38.1 37.2667C37.85 37.5167 37.5333 37.6333 37.2166 37.6333C36.9 37.6333 36.5833 37.5167 36.3333 37.2667C35.85 36.7833 35.85 35.9833 36.3333 35.5L42.6666 29.1333C43.15 28.65 43.95 28.65 44.4333 29.1333C44.9166 29.6167 44.9166 30.4167 44.4333 30.9Z" fill="white"/>
</svg>
